<svg xmlns="http://www.w3.org/2000/svg" xmlns:xlink="http://www.w3.org/1999/xlink" width="1080" zoomAndPan="magnify" viewBox="0 0 810 299.999988" height="400" preserveAspectRatio="xMidYMid meet" version="1.0"><path fill="#ee5725" d="M 786.527344 119.875 C 789.878906 119.875 792.601562 117.15625 792.601562 113.808594 L 792.601562 103.539062 C 792.601562 100.058594 789.777344 97.238281 786.296875 97.238281 L 762.703125 97.238281 L 762.703125 75.871094 C 762.703125 69.574219 758.734375 65.605469 752.660156 65.605469 L 744.71875 65.605469 C 738.640625 65.605469 734.671875 69.574219 734.671875 75.871094 L 734.671875 97.238281 L 687.492188 97.238281 L 687.492188 83.339844 C 687.492188 77.738281 689.597656 75.40625 694.964844 75.40625 L 705.710938 75.40625 C 710.847656 75.40625 714.121094 72.601562 714.121094 67.9375 L 714.121094 61.171875 C 714.121094 55.574219 710.847656 52.777344 704.074219 52.777344 L 692.390625 52.777344 C 669.035156 52.777344 660.160156 62.339844 660.160156 83.109375 L 660.160156 97.246094 L 638.671875 97.246094 L 638.671875 113.574219 C 638.671875 117.058594 641.496094 119.875 644.976562 119.875 L 660.160156 119.875 L 660.160156 207.933594 C 660.160156 212.445312 663.820312 216.097656 668.339844 216.097656 L 680.011719 216.097656 C 684.53125 216.097656 688.191406 212.445312 688.191406 207.933594 L 688.191406 119.40625 L 734.671875 119.40625 L 734.671875 182.273438 C 734.671875 207.234375 744.480469 216.105469 772.042969 216.105469 L 785.820312 216.105469 C 790.023438 216.105469 792.59375 213.542969 792.59375 209.109375 L 792.59375 199.308594 C 792.59375 195.34375 790.023438 193.011719 786.289062 193.011719 L 773.441406 193.011719 C 765.5 193.011719 762.695312 190.207031 762.695312 182.042969 L 762.695312 119.882812 L 786.519531 119.882812 Z M 786.527344 119.875 " fill-opacity="1" fill-rule="nonzero"/><path fill="#ee5725" d="M 615.335938 185.070312 L 615.335938 134.4375 C 615.335938 109.007812 598.753906 96.171875 566.519531 96.171875 C 536.859375 96.171875 520.039062 108.308594 520.039062 129.539062 L 520.039062 130.707031 C 520.039062 133.539062 522.339844 135.835938 525.179688 135.835938 L 542 135.835938 C 544.707031 135.835938 546.90625 133.644531 546.90625 130.9375 L 546.90625 129.769531 C 546.90625 121.375 552.980469 117.871094 566.757812 117.871094 C 580.535156 117.871094 587.546875 122.539062 587.546875 132.570312 L 587.546875 149.605469 C 579.371094 147.742188 570.96875 146.804688 562.789062 146.804688 C 530.554688 146.804688 515.371094 158.003906 515.371094 182.035156 L 515.371094 183.902344 C 515.371094 205.835938 531.722656 218.664062 559.515625 218.664062 C 574.929688 218.664062 587.78125 212.597656 595.484375 202.566406 L 607.164062 214.234375 C 611.292969 218.355469 617.988281 218.355469 622.117188 214.234375 L 626.320312 210.03125 C 630.1875 206.160156 630.1875 199.890625 626.320312 196.03125 L 615.34375 185.0625 Z M 587.542969 179.007812 C 587.542969 189.746094 577.734375 197.441406 564.1875 197.441406 C 549.9375 197.441406 542.695312 192.542969 542.695312 182.511719 L 542.695312 180.644531 C 542.695312 170.375 550.171875 165.246094 565.121094 165.246094 C 572.828125 165.246094 580.070312 166.183594 587.546875 168.277344 L 587.546875 179.015625 Z M 587.542969 179.007812 " fill-opacity="1" fill-rule="nonzero"/><path fill="#ee5725" d="M 491.554688 97.808594 L 488.75 97.808594 C 477.070312 97.808594 467.960938 103.636719 462.125 113.90625 L 448.8125 100.605469 C 444.683594 96.484375 437.996094 96.484375 433.867188 100.605469 L 422.65625 111.804688 L 440.640625 129.769531 L 440.640625 207.933594 C 440.640625 212.445312 444.304688 216.097656 448.820312 216.097656 L 460.496094 216.097656 C 465.015625 216.097656 468.675781 212.445312 468.675781 207.933594 L 468.675781 148.902344 C 468.675781 132.570312 476.386719 124.398438 491.5625 124.398438 L 494.832031 124.398438 C 502.773438 124.398438 507.914062 119.96875 507.914062 112.734375 L 507.914062 110.398438 C 507.914062 102.234375 502.304688 97.800781 491.5625 97.800781 Z M 491.554688 97.808594 " fill-opacity="1" fill-rule="nonzero"/><path fill="#ee5725" d="M 373.34375 160.28125 L 426.582031 97.253906 C 423.457031 97.449219 418.347656 96.972656 413.4375 96.972656 L 402.925781 96.972656 C 397.085938 96.972656 394.285156 98.839844 390.542969 103.96875 L 350.117188 149.441406 C 347.378906 152.902344 346.082031 155.941406 345.636719 158.996094 L 345.441406 158.996094 C 345.441406 159.421875 345.460938 159.855469 345.492188 160.28125 C 345.460938 160.710938 345.441406 161.136719 345.441406 161.570312 L 345.636719 161.570312 C 346.074219 164.617188 347.378906 167.652344 350.117188 171.117188 L 379.316406 209.851562 C 383.058594 214.988281 385.859375 216.847656 391.699219 216.847656 L 402.210938 216.847656 C 407.113281 216.847656 409.683594 214.75 409.683594 210.550781 C 409.683594 207.746094 408.984375 205.648438 405.246094 200.980469 L 373.34375 160.273438 Z M 373.34375 160.28125 " fill-opacity="1" fill-rule="nonzero"/><path fill="#ee5725" d="M 328.765625 50.210938 L 312.183594 50.210938 L 312.183594 207.941406 C 312.183594 212.453125 315.84375 216.105469 320.363281 216.105469 L 332.042969 216.105469 C 336.554688 216.105469 340.214844 212.453125 340.214844 207.941406 L 340.214844 61.648438 C 340.214844 55.335938 335.09375 50.210938 328.773438 50.210938 Z M 328.765625 50.210938 " fill-opacity="1" fill-rule="nonzero"/><path fill="#ee5725" d="M 279.230469 97.246094 L 255.636719 97.246094 L 255.636719 75.878906 C 255.636719 69.582031 251.664062 65.609375 245.589844 65.609375 L 237.648438 65.609375 C 231.574219 65.609375 227.605469 69.582031 227.605469 75.878906 L 227.605469 97.246094 L 206.113281 97.246094 L 206.113281 113.574219 C 206.113281 117.054688 208.941406 119.875 212.421875 119.875 L 227.605469 119.875 L 227.605469 182.113281 C 227.605469 207.234375 237.410156 216.097656 264.976562 216.097656 L 278.753906 216.097656 C 282.953125 216.097656 285.527344 213.535156 285.527344 209.101562 L 285.527344 199.300781 C 285.527344 195.339844 282.953125 193.003906 279.222656 193.003906 L 266.375 193.003906 C 258.433594 193.003906 255.628906 190.199219 255.628906 182.035156 L 255.628906 119.875 L 279.453125 119.875 C 282.804688 119.875 285.527344 117.15625 285.527344 113.804688 L 285.527344 103.539062 C 285.527344 100.058594 282.703125 97.238281 279.222656 97.238281 Z M 279.230469 97.246094 " fill-opacity="1" fill-rule="nonzero"/><path fill="#ee5725" d="M 195.152344 193.003906 L 185.808594 193.003906 C 180.667969 193.003906 178.804688 190.90625 178.804688 185.070312 L 178.804688 107.039062 C 178.804688 100.042969 175.53125 97.238281 168.996094 97.238281 L 150.777344 97.238281 L 150.777344 186.699219 C 150.777344 207.464844 158.488281 216.097656 183.480469 216.097656 L 194.691406 216.097656 C 198.902344 216.097656 201.464844 213.535156 201.464844 209.101562 L 201.464844 199.300781 C 201.464844 195.339844 198.894531 193.003906 195.160156 193.003906 Z M 195.152344 193.003906 " fill-opacity="1" fill-rule="nonzero"/><path fill="#ee5725" d="M 160.289062 84.277344 L 168.425781 84.277344 C 173.910156 84.277344 178.347656 79.835938 178.347656 74.359375 L 178.347656 66.820312 C 178.347656 61.34375 173.902344 56.90625 168.425781 56.90625 L 160.289062 56.90625 C 154.804688 56.90625 150.367188 61.34375 150.367188 66.820312 L 150.367188 74.359375 C 150.367188 79.835938 154.8125 84.277344 160.289062 84.277344 Z M 160.289062 84.277344 " fill-opacity="1" fill-rule="nonzero"/><path fill="#55a3d9" d="M 83.933594 157.792969 L 83.945312 158.765625 C 83.484375 161.957031 82.132812 165.128906 79.269531 168.738281 L 48.796875 209.175781 C 44.898438 214.535156 41.972656 216.480469 35.875 216.480469 L 24.898438 216.480469 C 19.78125 216.480469 17.09375 214.289062 17.09375 209.910156 C 17.09375 206.984375 17.828125 204.792969 21.726562 199.921875 L 55.027344 157.425781 L 21.726562 114.929688 C 17.828125 110.058594 17.09375 107.863281 17.09375 104.941406 C 17.09375 100.5625 19.777344 98.371094 24.898438 98.371094 L 35.875 98.371094 C 41.972656 98.371094 44.898438 100.316406 48.796875 105.679688 L 79.269531 146.113281 C 82.132812 149.722656 83.484375 152.894531 83.945312 156.085938 L 83.933594 157.109375 C 83.933594 157.5625 84.128906 156.980469 84.097656 157.433594 C 84.128906 157.878906 83.933594 157.355469 83.933594 157.800781 Z M 83.933594 157.792969 " fill-opacity="1" fill-rule="evenodd"/></svg>